<?xml version="1.0" standalone="no"?><!DOCTYPE svg PUBLIC "-//W3C//DTD SVG 1.1//EN" "http://www.w3.org/Graphics/SVG/1.1/DTD/svg11.dtd"><svg t="1761383357917" class="icon" viewBox="0 0 1856 1024" version="1.1" xmlns="http://www.w3.org/2000/svg" p-id="11427" xmlns:xlink="http://www.w3.org/1999/xlink" width="362.5" height="200"><path d="M655.776 700.992c6.912 6.08 16 9.216 25.216 8.64h161.76L777.536 832H624.96a39.424 39.424 0 0 1-30.816-13.696zM360.256 192v547.872c-0.288 5.248-6.112 91.68-84.544 91.68H235.264s-79.04-8.224-79.04-101.024H236.16V192h124.096z m860.256 38.784v124.96h-78.464v357.824h118.912v117.984H842.816l59.104-117.984h117.632V355.744h-79.68V230.784h280.64zM1503.584 192v38.144h47.776c76.352 0.096 138.176 61.408 138.176 136.96v80.864h14.72c66.112 0 119.744 53.056 119.744 118.528v162.016c0 27.328-10.944 53.536-30.432 72.864a104.576 104.576 0 0 1-73.6 30.176h-31.328c-57.504 0-104.096-46.144-104.096-103.04h115.424v-128.96a29.248 29.248 0 0 0-29.44-29.12h-166.944v261.12h-121.312v-261.12h-121.312V448h121.28v-95.36h-76.16V230.144h76.16V192h121.344zM156.224 355.744v4.928c-0.16 44.096-4.256 370.624-88.224 406.272L0 643.648a840.512 840.512 0 0 0 29.44-287.904h126.784z m411.744 0a840.512 840.512 0 0 0 29.44 287.904l-68.032 123.296c-83.968-35.648-88.064-362.176-88.224-406.272v-4.928zM861.504 192l-85.216 161.504a11.456 11.456 0 0 0 0.448 11.296 11.712 11.712 0 0 0 9.984 5.504h7.36l7.36-14.56h119.52l-102.912 198.752a11.52 11.52 0 0 0 0.448 11.328 11.776 11.776 0 0 0 9.984 5.568h68.512l-55.136 98.528h-137.28c-58.816-2.464-22.048-74.016-22.048-74.016l63.072-127.36h-82.624c-58.816-2.4-22.08-74.016-22.08-74.016L742.624 192h118.912z m685.664 160.64h-43.584v95.328h62.496V371.2a18.816 18.816 0 0 0-18.88-18.624z m184.32-115.616a60.608 60.608 0 0 1 61.28 0c18.88 11.104 30.176 31.488 29.408 53.216 0 15.776-6.304 30.88-17.568 42.048a60.32 60.32 0 0 1-42.432 17.408H1702.08V290.24a59.328 59.328 0 0 1 29.376-53.216z" fill="#d81e06" p-id="11428"></path></svg>